<?xml version="1.0" standalone="no"?>
<!DOCTYPE svg PUBLIC "-//W3C//DTD SVG 20010904//EN"
 "http://www.w3.org/TR/2001/REC-SVG-20010904/DTD/svg10.dtd">
<svg version="1.0" xmlns="http://www.w3.org/2000/svg"
 width="1920.000000pt" height="1920.000000pt" viewBox="0 0 1920.000000 1920.000000"
 preserveAspectRatio="xMidYMid meet">

<g transform="translate(0.000000,1920.000000) scale(0.100000,-0.100000)"
fill="#000000" stroke="none">
<path d="M9437 17624 c-133 -29 -233 -82 -335 -177 -97 -91 -181 -241 -211
-377 -14 -60 -14 -236 0 -302 12 -57 74 -200 108 -247 l21 -29 -33 -6 c-17 -3
-75 -20 -127 -37 -52 -17 -102 -33 -110 -34 -8 -2 -16 -4 -17 -5 -2 -2 -6 -3
-10 -4 -57 -13 -309 -140 -433 -218 -318 -200 -576 -504 -705 -830 -24 -63
-45 -100 -59 -107 -19 -10 -114 -33 -182 -45 -16 -3 -41 -19 -56 -36 l-28 -30
0 -391 0 -391 35 -35 36 -36 72 7 c40 4 89 9 110 11 l37 4 1 -857 c1 -494 5
-839 10 -814 16 85 100 244 180 346 l39 49 0 657 0 657 121 12 c196 20 451 41
497 41 l42 0 0 -362 1 -363 167 170 c222 226 321 373 362 538 l12 45 96 8
c221 17 1376 1 1507 -21 11 -2 51 -4 89 -4 l69 -1 -6 -54 c-30 -294 -423 -677
-1230 -1197 -471 -304 -726 -479 -969 -668 l-98 -76 0 -783 0 -783 29 23 c464
377 643 504 1051 743 938 548 1940 1424 2113 1847 21 51 22 71 27 448 l5 395
30 -2 c17 -1 62 -5 102 -9 l72 -7 36 36 35 35 0 391 0 391 -27 30 c-16 17 -37
33 -48 35 -11 2 -20 4 -20 5 0 1 -9 3 -20 4 -76 11 -150 32 -164 47 -9 10 -31
58 -50 106 -122 314 -386 623 -701 821 -124 78 -376 205 -432 218 -5 1 -9 2
-10 4 -2 1 -10 3 -18 5 -8 1 -58 17 -110 34 -52 17 -110 34 -127 37 l-33 6 21
29 c34 47 96 190 108 247 14 66 14 242 0 302 -42 189 -163 363 -324 466 -144
92 -365 127 -548 88z m318 -44 c-3 -5 -15 -10 -25 -10 -26 0 -153 -47 -198
-73 -213 -122 -344 -342 -346 -582 -1 -96 15 -147 70 -227 34 -49 116 -103
184 -122 30 -8 203 -27 384 -41 181 -14 332 -28 335 -30 2 -3 -232 -5 -522 -5
l-526 0 -21 30 c-32 45 -86 168 -101 230 -18 76 -16 241 5 320 36 144 131 286
248 375 77 58 189 112 272 130 73 16 250 20 241 5z m-670 -1203 c-11 -8 -47
-29 -80 -47 -262 -147 -524 -374 -694 -603 -74 -99 -174 -257 -167 -264 2 -2
84 1 182 6 773 44 1724 8 2524 -94 254 -33 637 -92 675 -105 34 -11 50 -13
-245 20 -473 52 -1461 97 -1870 85 -647 -18 -1100 -44 -1498 -86 -107 -12
-196 -18 -200 -15 -3 4 11 40 31 82 197 398 546 716 997 910 83 35 330 123
350 123 10 1 8 -3 -5 -12z m2502 -1123 c-3 -3 -12 -4 -19 -1 -8 3 -5 6 6 6 11
1 17 -2 13 -5z m-3785 -24 c-83 -20 -108 -38 -122 -89 -13 -48 -13 -595 0
-643 6 -20 25 -48 42 -63 17 -14 29 -27 27 -29 -5 -3 -215 -38 -266 -43 -36
-4 -46 -1 -80 30 l-38 35 -3 334 c-2 363 -2 365 55 404 42 28 313 81 418 82
34 0 29 -3 -33 -18z"/>
<path d="M11625 12073 c-244 -467 -975 -1103 -1875 -1633 -378 -222 -727 -474
-1296 -936 -12 -9 -14 -150 -14 -833 0 -451 2 -821 5 -821 3 0 52 39 108 88
249 213 538 428 952 707 588 396 1007 709 1435 1069 215 181 567 535 652 656
l68 95 0 833 c0 457 -1 832 -2 832 -2 0 -16 -26 -33 -57z"/>
<path d="M7694 11662 c-84 -126 -88 -134 -120 -221 l-24 -66 1 -815 c1 -448 4
-804 6 -790 9 50 76 177 148 286 l75 111 0 801 c0 441 -3 802 -7 802 -5 0 -40
-48 -79 -108z"/>
<path d="M11652 9268 c-11 -82 -132 -284 -280 -467 -103 -127 -483 -508 -652
-653 -307 -262 -607 -487 -950 -713 -618 -406 -791 -527 -1132 -789 l-197
-151 0 -845 0 -845 38 72 c89 167 259 337 556 553 145 105 570 389 870 580
337 215 618 403 746 500 473 357 796 693 972 1011 l37 66 -3 849 c-1 467 -3
841 -5 832z"/>
<path d="M7730 8818 c-77 -90 -142 -175 -161 -210 -18 -36 -19 -67 -19 -935
l1 -898 19 53 c26 72 69 148 146 256 l64 89 0 844 c0 463 -3 843 -7 842 -5 0
-24 -19 -43 -41z"/>
<path d="M11647 6613 c-10 -98 -68 -318 -112 -428 -20 -49 -63 -142 -96 -205
-141 -269 -282 -436 -669 -793 -102 -94 -241 -226 -310 -293 l-125 -123 -370
-11 c-357 -11 -460 -10 -1015 10 -378 14 -700 36 -1007 67 l-163 16 0 518 c0
286 -2 519 -5 519 -19 0 -165 -183 -200 -252 l-25 -47 0 -350 0 -350 -37 4
c-21 2 -70 7 -110 11 l-72 7 -36 -36 -35 -35 0 -391 0 -391 28 -30 c15 -17 40
-33 56 -36 68 -12 163 -35 182 -45 14 -7 35 -44 59 -107 129 -326 387 -630
705 -830 124 -78 376 -205 433 -218 4 -1 8 -2 10 -4 1 -1 9 -3 17 -5 8 -1 58
-17 110 -34 52 -17 110 -34 127 -37 l33 -6 -21 -29 c-34 -47 -96 -190 -108
-247 -14 -66 -14 -242 0 -302 42 -187 163 -363 322 -464 219 -140 554 -141
772 -2 161 103 282 277 324 466 14 60 14 236 0 302 -12 57 -74 200 -108 247
l-21 29 33 6 c17 3 75 20 127 37 52 17 102 33 110 34 8 2 16 4 18 5 1 2 5 3
10 4 56 13 308 140 432 218 313 197 576 504 700 818 18 47 42 95 52 106 17 19
81 38 163 50 11 1 20 3 20 4 0 1 9 3 20 5 11 2 32 18 48 35 l27 30 0 391 0
391 -35 35 -36 36 -72 -7 c-40 -4 -85 -8 -102 -9 l-30 -2 -5 895 c-3 493 -8
863 -13 823z m-4012 -1798 c61 -10 112 -20 114 -21 2 -2 -10 -15 -27 -29 -17
-15 -36 -43 -42 -63 -13 -48 -13 -595 0 -643 14 -51 39 -69 122 -89 143 -35
-39 -18 -245 22 -114 22 -162 45 -184 88 -10 19 -13 104 -11 358 l3 334 38 35
c44 40 40 40 232 8z m3890 -886 c-125 -38 -993 -148 -1365 -174 -47 -3 -110
-8 -140 -10 -359 -30 -1304 -39 -1674 -16 -109 6 -200 10 -202 8 -2 -2 18 -41
46 -86 119 -196 285 -389 465 -539 90 -75 293 -213 393 -267 28 -16 50 -30 48
-33 -7 -6 -184 53 -307 104 -482 195 -841 513 -1046 928 -20 42 -34 78 -31 82
4 3 93 -3 200 -15 706 -74 1655 -104 2328 -72 512 24 939 55 1160 85 52 7 109
13 125 14 l30 0 -30 -9z m-1366 -1224 c-3 -2 -154 -16 -335 -30 -181 -14 -354
-33 -384 -41 -68 -19 -150 -73 -184 -122 -55 -80 -71 -131 -70 -227 2 -297
201 -558 489 -640 95 -28 95 -30 4 -33 -316 -10 -607 209 -685 518 -21 79 -23
244 -5 320 15 62 69 185 101 230 l21 30 526 0 c290 0 524 -2 522 -5z"/>
</g>
</svg>
